<mxfile host="app.diagrams.net" agent="Mozilla/5.0 (Windows NT 10.0; Win64; x64; rv:131.0) Gecko/20100101 Firefox/131.0" version="24.7.17">
  <diagram name="Seite-1" id="lQnJl0b2nGtGwMILH2Yc">
    <mxGraphModel dx="2074" dy="1191" grid="0" gridSize="10" guides="1" tooltips="1" connect="1" arrows="1" fold="1" page="0" pageScale="1" pageWidth="827" pageHeight="1169" math="0" shadow="0">
      <root>
        <mxCell id="0" />
        <mxCell id="1" parent="0" />
        <mxCell id="64IpgmcBa8euB1ozY5YU-2" value="" style="ellipse;whiteSpace=wrap;html=1;aspect=fixed;" parent="1" vertex="1">
          <mxGeometry x="-314" y="-194" width="38" height="38" as="geometry" />
        </mxCell>
        <mxCell id="64IpgmcBa8euB1ozY5YU-3" value="" style="endArrow=classic;html=1;rounded=0;fontSize=12;startSize=8;endSize=8;curved=1;" parent="1" edge="1">
          <mxGeometry width="50" height="50" relative="1" as="geometry">
            <mxPoint x="-262" y="-162" as="sourcePoint" />
            <mxPoint x="65" y="-134" as="targetPoint" />
          </mxGeometry>
        </mxCell>
        <mxCell id="o4UTqkmUccYZ7qVZ8mLp-24" style="edgeStyle=orthogonalEdgeStyle;rounded=0;orthogonalLoop=1;jettySize=auto;html=1;exitX=1;exitY=0.25;exitDx=0;exitDy=0;entryX=0;entryY=0;entryDx=0;entryDy=0;" edge="1" parent="1" source="64IpgmcBa8euB1ozY5YU-6" target="o4UTqkmUccYZ7qVZ8mLp-23">
          <mxGeometry relative="1" as="geometry" />
        </mxCell>
        <mxCell id="64IpgmcBa8euB1ozY5YU-6" value="Spiel starten" style="rounded=1;whiteSpace=wrap;html=1;" parent="1" vertex="1">
          <mxGeometry x="356" y="3" width="120" height="60" as="geometry" />
        </mxCell>
        <mxCell id="64IpgmcBa8euB1ozY5YU-7" value="Highscore" style="rounded=1;whiteSpace=wrap;html=1;" parent="1" vertex="1">
          <mxGeometry x="60" y="2" width="120" height="60" as="geometry" />
        </mxCell>
        <mxCell id="64IpgmcBa8euB1ozY5YU-13" style="edgeStyle=none;curved=1;rounded=0;orthogonalLoop=1;jettySize=auto;html=1;exitX=1;exitY=1;exitDx=0;exitDy=0;entryX=0.5;entryY=0;entryDx=0;entryDy=0;fontSize=12;startSize=8;endSize=8;" parent="1" source="64IpgmcBa8euB1ozY5YU-8" target="64IpgmcBa8euB1ozY5YU-7" edge="1">
          <mxGeometry relative="1" as="geometry" />
        </mxCell>
        <mxCell id="o4UTqkmUccYZ7qVZ8mLp-22" style="edgeStyle=orthogonalEdgeStyle;rounded=0;orthogonalLoop=1;jettySize=auto;html=1;exitX=1;exitY=0;exitDx=0;exitDy=0;" edge="1" parent="1" source="64IpgmcBa8euB1ozY5YU-8" target="64IpgmcBa8euB1ozY5YU-6">
          <mxGeometry relative="1" as="geometry" />
        </mxCell>
        <mxCell id="64IpgmcBa8euB1ozY5YU-8" value="Hauptmenü" style="rhombus;whiteSpace=wrap;html=1;" parent="1" vertex="1">
          <mxGeometry x="70" y="-171" width="80" height="80" as="geometry" />
        </mxCell>
        <mxCell id="64IpgmcBa8euB1ozY5YU-10" style="edgeStyle=none;curved=1;rounded=0;orthogonalLoop=1;jettySize=auto;html=1;exitX=0;exitY=1;exitDx=0;exitDy=0;entryX=0.6;entryY=0.017;entryDx=0;entryDy=0;entryPerimeter=0;fontSize=12;startSize=8;endSize=8;" parent="1" source="64IpgmcBa8euB1ozY5YU-8" edge="1">
          <mxGeometry relative="1" as="geometry">
            <mxPoint x="-17" y="-1.9800000000000182" as="targetPoint" />
          </mxGeometry>
        </mxCell>
        <mxCell id="64IpgmcBa8euB1ozY5YU-14" value="Credits" style="rounded=1;whiteSpace=wrap;html=1;" parent="1" vertex="1">
          <mxGeometry x="206" y="2" width="120" height="60" as="geometry" />
        </mxCell>
        <mxCell id="o4UTqkmUccYZ7qVZ8mLp-20" style="edgeStyle=orthogonalEdgeStyle;rounded=0;orthogonalLoop=1;jettySize=auto;html=1;exitX=0;exitY=0.5;exitDx=0;exitDy=0;entryX=1;entryY=0.5;entryDx=0;entryDy=0;" edge="1" parent="1" source="64IpgmcBa8euB1ozY5YU-15" target="o4UTqkmUccYZ7qVZ8mLp-19">
          <mxGeometry relative="1" as="geometry" />
        </mxCell>
        <mxCell id="64IpgmcBa8euB1ozY5YU-15" value="Spiel beenden" style="rounded=1;whiteSpace=wrap;html=1;" parent="1" vertex="1">
          <mxGeometry x="-229" y="-5" width="120" height="60" as="geometry" />
        </mxCell>
        <mxCell id="64IpgmcBa8euB1ozY5YU-16" value="" style="endArrow=classic;html=1;rounded=0;fontSize=12;startSize=8;endSize=8;curved=1;exitX=0.038;exitY=0.588;exitDx=0;exitDy=0;exitPerimeter=0;entryX=0.5;entryY=0;entryDx=0;entryDy=0;" parent="1" source="64IpgmcBa8euB1ozY5YU-8" target="64IpgmcBa8euB1ozY5YU-15" edge="1">
          <mxGeometry width="50" height="50" relative="1" as="geometry">
            <mxPoint x="168" y="212" as="sourcePoint" />
            <mxPoint x="218" y="162" as="targetPoint" />
          </mxGeometry>
        </mxCell>
        <mxCell id="64IpgmcBa8euB1ozY5YU-17" value="" style="endArrow=classic;html=1;rounded=0;fontSize=12;startSize=8;endSize=8;curved=1;exitX=1;exitY=0.5;exitDx=0;exitDy=0;entryX=0.5;entryY=0;entryDx=0;entryDy=0;" parent="1" source="64IpgmcBa8euB1ozY5YU-8" target="64IpgmcBa8euB1ozY5YU-14" edge="1">
          <mxGeometry width="50" height="50" relative="1" as="geometry">
            <mxPoint x="233" y="225" as="sourcePoint" />
            <mxPoint x="283" y="175" as="targetPoint" />
          </mxGeometry>
        </mxCell>
        <mxCell id="64IpgmcBa8euB1ozY5YU-18" value="&lt;div&gt;Optionen&lt;/div&gt;&lt;div&gt;&lt;br&gt;&lt;/div&gt;" style="rhombus;whiteSpace=wrap;html=1;" parent="1" vertex="1">
          <mxGeometry x="-57" y="-7" width="80" height="80" as="geometry" />
        </mxCell>
        <mxCell id="64IpgmcBa8euB1ozY5YU-19" value="Lautstärke" style="rounded=1;whiteSpace=wrap;html=1;" parent="1" vertex="1">
          <mxGeometry x="-223" y="222" width="120" height="60" as="geometry" />
        </mxCell>
        <mxCell id="64IpgmcBa8euB1ozY5YU-20" value="Tastenbelegung" style="rounded=1;whiteSpace=wrap;html=1;" parent="1" vertex="1">
          <mxGeometry x="-79" y="222" width="120" height="60" as="geometry" />
        </mxCell>
        <mxCell id="64IpgmcBa8euB1ozY5YU-21" value="Anzeige" style="rounded=1;whiteSpace=wrap;html=1;" parent="1" vertex="1">
          <mxGeometry x="58" y="222" width="120" height="60" as="geometry" />
        </mxCell>
        <mxCell id="o4UTqkmUccYZ7qVZ8mLp-13" style="edgeStyle=orthogonalEdgeStyle;rounded=0;orthogonalLoop=1;jettySize=auto;html=1;exitX=0.25;exitY=1;exitDx=0;exitDy=0;entryX=0.5;entryY=0;entryDx=0;entryDy=0;" edge="1" parent="1" source="64IpgmcBa8euB1ozY5YU-22" target="o4UTqkmUccYZ7qVZ8mLp-10">
          <mxGeometry relative="1" as="geometry" />
        </mxCell>
        <mxCell id="o4UTqkmUccYZ7qVZ8mLp-14" style="edgeStyle=orthogonalEdgeStyle;rounded=0;orthogonalLoop=1;jettySize=auto;html=1;exitX=0.5;exitY=1;exitDx=0;exitDy=0;entryX=0.25;entryY=0;entryDx=0;entryDy=0;" edge="1" parent="1" source="64IpgmcBa8euB1ozY5YU-22" target="o4UTqkmUccYZ7qVZ8mLp-11">
          <mxGeometry relative="1" as="geometry" />
        </mxCell>
        <mxCell id="o4UTqkmUccYZ7qVZ8mLp-17" style="edgeStyle=orthogonalEdgeStyle;rounded=0;orthogonalLoop=1;jettySize=auto;html=1;exitX=1;exitY=0.75;exitDx=0;exitDy=0;entryX=0.5;entryY=0;entryDx=0;entryDy=0;" edge="1" parent="1" source="64IpgmcBa8euB1ozY5YU-22" target="o4UTqkmUccYZ7qVZ8mLp-12">
          <mxGeometry relative="1" as="geometry" />
        </mxCell>
        <mxCell id="64IpgmcBa8euB1ozY5YU-22" value="&lt;div&gt;Schwierigkeit&lt;/div&gt;&lt;div&gt;&lt;br&gt;&lt;/div&gt;" style="rounded=1;whiteSpace=wrap;html=1;" parent="1" vertex="1">
          <mxGeometry x="202" y="222" width="120" height="60" as="geometry" />
        </mxCell>
        <mxCell id="o4UTqkmUccYZ7qVZ8mLp-6" value="" style="endArrow=classic;html=1;rounded=0;entryX=0.5;entryY=0;entryDx=0;entryDy=0;exitX=0.125;exitY=0.65;exitDx=0;exitDy=0;exitPerimeter=0;" edge="1" parent="1" source="64IpgmcBa8euB1ozY5YU-18" target="64IpgmcBa8euB1ozY5YU-19">
          <mxGeometry width="50" height="50" relative="1" as="geometry">
            <mxPoint x="-63" y="32" as="sourcePoint" />
            <mxPoint x="101" y="163" as="targetPoint" />
          </mxGeometry>
        </mxCell>
        <mxCell id="o4UTqkmUccYZ7qVZ8mLp-7" value="" style="endArrow=classic;html=1;rounded=0;exitX=1;exitY=1;exitDx=0;exitDy=0;entryX=0.45;entryY=0;entryDx=0;entryDy=0;entryPerimeter=0;" edge="1" parent="1" source="64IpgmcBa8euB1ozY5YU-18" target="64IpgmcBa8euB1ozY5YU-22">
          <mxGeometry width="50" height="50" relative="1" as="geometry">
            <mxPoint x="51" y="213" as="sourcePoint" />
            <mxPoint x="101" y="163" as="targetPoint" />
          </mxGeometry>
        </mxCell>
        <mxCell id="o4UTqkmUccYZ7qVZ8mLp-8" value="" style="endArrow=classic;html=1;rounded=0;" edge="1" parent="1" source="64IpgmcBa8euB1ozY5YU-18">
          <mxGeometry width="50" height="50" relative="1" as="geometry">
            <mxPoint x="51" y="213" as="sourcePoint" />
            <mxPoint x="115" y="215" as="targetPoint" />
          </mxGeometry>
        </mxCell>
        <mxCell id="o4UTqkmUccYZ7qVZ8mLp-9" value="" style="endArrow=classic;html=1;rounded=0;entryX=0.25;entryY=0;entryDx=0;entryDy=0;exitX=0;exitY=1;exitDx=0;exitDy=0;" edge="1" parent="1" source="64IpgmcBa8euB1ozY5YU-18" target="64IpgmcBa8euB1ozY5YU-20">
          <mxGeometry width="50" height="50" relative="1" as="geometry">
            <mxPoint x="-47" y="96" as="sourcePoint" />
            <mxPoint x="101" y="163" as="targetPoint" />
          </mxGeometry>
        </mxCell>
        <mxCell id="o4UTqkmUccYZ7qVZ8mLp-10" value="Gegner Geschwindigkeit" style="rounded=1;whiteSpace=wrap;html=1;" vertex="1" parent="1">
          <mxGeometry x="148" y="370" width="120" height="60" as="geometry" />
        </mxCell>
        <mxCell id="o4UTqkmUccYZ7qVZ8mLp-11" value="Spieler HP" style="rounded=1;whiteSpace=wrap;html=1;" vertex="1" parent="1">
          <mxGeometry x="294" y="370" width="120" height="60" as="geometry" />
        </mxCell>
        <mxCell id="o4UTqkmUccYZ7qVZ8mLp-12" value="&lt;div&gt;Gegner HP&lt;/div&gt;&lt;div&gt;&lt;br&gt;&lt;/div&gt;" style="rounded=1;whiteSpace=wrap;html=1;" vertex="1" parent="1">
          <mxGeometry x="447" y="370" width="120" height="60" as="geometry" />
        </mxCell>
        <mxCell id="o4UTqkmUccYZ7qVZ8mLp-19" value="" style="ellipse;whiteSpace=wrap;html=1;aspect=fixed;" vertex="1" parent="1">
          <mxGeometry x="-380" y="-12" width="74" height="74" as="geometry" />
        </mxCell>
        <mxCell id="o4UTqkmUccYZ7qVZ8mLp-18" value="" style="ellipse;whiteSpace=wrap;html=1;aspect=fixed;" vertex="1" parent="1">
          <mxGeometry x="-368.5" y="-0.5" width="51" height="51" as="geometry" />
        </mxCell>
        <mxCell id="o4UTqkmUccYZ7qVZ8mLp-21" style="edgeStyle=orthogonalEdgeStyle;rounded=0;orthogonalLoop=1;jettySize=auto;html=1;exitX=0.5;exitY=1;exitDx=0;exitDy=0;" edge="1" parent="1" source="o4UTqkmUccYZ7qVZ8mLp-18" target="o4UTqkmUccYZ7qVZ8mLp-18">
          <mxGeometry relative="1" as="geometry" />
        </mxCell>
        <mxCell id="o4UTqkmUccYZ7qVZ8mLp-27" value="Nein" style="edgeStyle=orthogonalEdgeStyle;rounded=0;orthogonalLoop=1;jettySize=auto;html=1;exitX=0;exitY=1;exitDx=0;exitDy=0;entryX=0.5;entryY=0;entryDx=0;entryDy=0;" edge="1" parent="1" source="o4UTqkmUccYZ7qVZ8mLp-23" target="o4UTqkmUccYZ7qVZ8mLp-25">
          <mxGeometry relative="1" as="geometry" />
        </mxCell>
        <mxCell id="o4UTqkmUccYZ7qVZ8mLp-28" style="edgeStyle=orthogonalEdgeStyle;rounded=0;orthogonalLoop=1;jettySize=auto;html=1;exitX=1;exitY=1;exitDx=0;exitDy=0;entryX=0.5;entryY=0;entryDx=0;entryDy=0;" edge="1" parent="1" source="o4UTqkmUccYZ7qVZ8mLp-23" target="o4UTqkmUccYZ7qVZ8mLp-26">
          <mxGeometry relative="1" as="geometry" />
        </mxCell>
        <mxCell id="o4UTqkmUccYZ7qVZ8mLp-23" value="Level freigeschaltet?" style="rhombus;whiteSpace=wrap;html=1;" vertex="1" parent="1">
          <mxGeometry x="518" y="-3" width="80" height="80" as="geometry" />
        </mxCell>
        <mxCell id="o4UTqkmUccYZ7qVZ8mLp-25" value="neues Spiel starten" style="rounded=1;whiteSpace=wrap;html=1;" vertex="1" parent="1">
          <mxGeometry x="447" y="137" width="120" height="60" as="geometry" />
        </mxCell>
        <mxCell id="o4UTqkmUccYZ7qVZ8mLp-26" value="Level Menü" style="rounded=1;whiteSpace=wrap;html=1;" vertex="1" parent="1">
          <mxGeometry x="596" y="139" width="120" height="60" as="geometry" />
        </mxCell>
      </root>
    </mxGraphModel>
  </diagram>
</mxfile>
